<?xml version="1.0" encoding="utf-8"?>
<!-- Generator: Adobe Illustrator 18.1.0, SVG Export Plug-In . SVG Version: 6.00 Build 0)  -->
<svg version="1.1" id="Layer_1" xmlns="http://www.w3.org/2000/svg" xmlns:xlink="http://www.w3.org/1999/xlink" x="0px" y="0px"
	 viewBox="0 0 75 62.5" enable-background="new 0 0 75 62.5" xml:space="preserve">
<g>
	<path fill="#00395C" d="M58,34.6c0,5.5-4.5,10-10,10H27c-5.5,0-10-4.5-10-10v-21c0-5.5,4.5-10,10-10h21c5.5,0,10,4.5,10,10V34.6z"
		/>
</g>
<g>
	<path fill="#00395C" d="M24.1,48.9c0.1,0,0.1,0,0.2,0s0.2,0,0.2,0c0.1,0,0.1,0,0.2,0c0.1,0,0.1,0,0.2,0v8.6c-0.1,0-0.1,0-0.2,0
		c-0.1,0-0.1,0-0.2,0c-0.1,0-0.2,0-0.2,0c-0.1,0-0.1,0-0.2,0V48.9z"/>
	<path fill="#00395C" d="M27.2,51.4c0.1,0,0.1,0,0.2,0c0.1,0,0.1,0,0.2,0c0.1,0,0.1,0,0.2,0c0.1,0,0.1,0,0.2,0c0,0.1,0,0.3,0,0.5
		c0,0.2,0,0.4,0,0.6c0.1-0.1,0.2-0.3,0.3-0.4c0.1-0.1,0.3-0.3,0.4-0.4s0.4-0.2,0.6-0.3c0.2-0.1,0.5-0.1,0.7-0.1
		c0.7,0,1.2,0.2,1.5,0.6c0.3,0.4,0.5,1,0.5,1.8v3.9c0,0-0.1,0-0.2,0c-0.1,0-0.1,0-0.2,0c0,0-0.1,0-0.2,0c-0.1,0-0.2,0-0.2,0v-3.6
		c0-0.7-0.1-1.2-0.3-1.5S30.4,52,30,52c-0.3,0-0.5,0.1-0.8,0.2c-0.2,0.1-0.5,0.3-0.6,0.5c-0.2,0.2-0.3,0.5-0.4,0.8s-0.2,0.7-0.2,1.1
		v3c0,0-0.1,0-0.2,0c-0.1,0-0.1,0-0.2,0c0,0-0.1,0-0.2,0c-0.1,0-0.2,0-0.2,0V51.4z"/>
	<path fill="#00395C" d="M34.4,52.1h-0.8c0,0,0-0.1,0-0.1c0-0.1,0-0.1,0-0.2s0-0.1,0-0.2c0-0.1,0-0.1,0-0.2h1.6v6.1c0,0-0.1,0-0.2,0
		c-0.1,0-0.1,0-0.2,0c0,0-0.1,0-0.2,0c-0.1,0-0.2,0-0.2,0V52.1z M34,49.9c0-0.1,0-0.2,0-0.3c0-0.1,0-0.2,0-0.3c0-0.1,0-0.1,0-0.2
		c0-0.1,0-0.2,0-0.2c0.1,0,0.2,0,0.3,0s0.2,0,0.3,0c0.1,0,0.1,0,0.2,0c0.1,0,0.2,0,0.2,0c0,0.1,0,0.1,0,0.2c0,0.1,0,0.2,0,0.2
		c0,0.1,0,0.2,0,0.3c0,0.1,0,0.2,0,0.3c-0.1,0-0.1,0-0.2,0c-0.1,0-0.2,0-0.2,0c-0.1,0-0.2,0-0.3,0C34.1,50,34.1,50,34,49.9z"/>
	<path fill="#00395C" d="M41.3,56.8c0,0.1,0.1,0.2,0.1,0.3c0,0.1,0.1,0.2,0.1,0.3c-0.2,0.1-0.4,0.1-0.7,0.2c-0.3,0-0.5,0.1-0.9,0.1
		c-1,0-1.8-0.3-2.3-0.8c-0.5-0.5-0.8-1.3-0.8-2.4c0-0.5,0.1-0.9,0.2-1.3c0.1-0.4,0.3-0.7,0.6-1s0.6-0.5,0.9-0.7
		c0.4-0.2,0.8-0.2,1.3-0.2c0.3,0,0.6,0,0.9,0.1c0.3,0,0.5,0.1,0.7,0.2c0,0.1,0,0.2,0,0.4c0,0.1-0.1,0.2-0.1,0.3
		c-0.2-0.1-0.4-0.1-0.6-0.1c-0.2,0-0.5-0.1-0.8-0.1c-0.4,0-0.7,0.1-0.9,0.2c-0.3,0.1-0.5,0.3-0.7,0.5c-0.2,0.2-0.3,0.5-0.4,0.8
		s-0.1,0.6-0.1,1c0,0.9,0.2,1.5,0.6,1.9c0.4,0.4,1,0.6,1.7,0.6c0.2,0,0.5,0,0.7-0.1C41,56.9,41.2,56.9,41.3,56.8z"/>
	<path fill="#00395C" d="M43.4,52.1h-0.8c0,0,0-0.1,0-0.1c0-0.1,0-0.1,0-0.2s0-0.1,0-0.2c0-0.1,0-0.1,0-0.2h1.6v6.1c0,0-0.1,0-0.2,0
		c-0.1,0-0.1,0-0.2,0c0,0-0.1,0-0.2,0c-0.1,0-0.2,0-0.2,0V52.1z M43,49.9c0-0.1,0-0.2,0-0.3c0-0.1,0-0.2,0-0.3c0-0.1,0-0.1,0-0.2
		c0-0.1,0-0.2,0-0.2c0.1,0,0.2,0,0.3,0s0.2,0,0.3,0c0.1,0,0.1,0,0.2,0c0.1,0,0.2,0,0.2,0c0,0.1,0,0.1,0,0.2c0,0.1,0,0.2,0,0.2
		c0,0.1,0,0.2,0,0.3c0,0.1,0,0.2,0,0.3c-0.1,0-0.1,0-0.2,0c-0.1,0-0.2,0-0.2,0c-0.1,0-0.2,0-0.3,0C43.2,50,43.1,50,43,49.9z"/>
	<path fill="#00395C" d="M48.7,57.7c-0.5,0-0.9-0.1-1.2-0.2c-0.3-0.2-0.6-0.4-0.9-0.7c-0.2-0.3-0.4-0.6-0.5-1C46,55.4,46,55,46,54.5
		c0-0.4,0.1-0.9,0.2-1.3c0.1-0.4,0.3-0.7,0.5-1c0.2-0.3,0.5-0.5,0.9-0.7c0.3-0.2,0.7-0.2,1.2-0.2s0.9,0.1,1.2,0.2
		c0.3,0.2,0.6,0.4,0.9,0.7c0.2,0.3,0.4,0.6,0.5,1c0.1,0.4,0.2,0.8,0.2,1.3c0,0.4-0.1,0.9-0.2,1.3c-0.1,0.4-0.3,0.7-0.5,1
		c-0.2,0.3-0.5,0.5-0.9,0.7C49.6,57.6,49.2,57.7,48.7,57.7z M48.7,57c0.6,0,1.1-0.2,1.4-0.7c0.3-0.4,0.5-1.1,0.5-1.8
		s-0.2-1.4-0.5-1.8c-0.3-0.4-0.8-0.7-1.4-0.7s-1.1,0.2-1.4,0.7c-0.3,0.4-0.5,1.1-0.5,1.8s0.2,1.4,0.5,1.8C47.6,56.8,48.1,57,48.7,57
		z"/>
</g>
<g>
	<path fill="#FFFFFF" d="M50.8,25.5c-0.1,0.1-0.2,0.2-0.4,0.2c0,0,0,0-0.1,0c-0.1,0-0.3,0-0.4-0.1L37.5,15.2L25.1,25.6
		c-0.1,0.1-0.3,0.1-0.4,0.1c-0.1,0-0.3-0.1-0.4-0.2l-1.1-1.3c-0.2-0.2-0.2-0.6,0.1-0.8l12.9-10.8c0.8-0.6,2-0.6,2.7,0l4.4,3.7v-3.5
		c0-0.3,0.3-0.6,0.6-0.6h3.5c0.3,0,0.6,0.3,0.6,0.6v7.3l3.9,3.3c0.2,0.2,0.3,0.6,0.1,0.8L50.8,25.5z M47.9,34c0,0.6-0.5,1.2-1.2,1.2
		h-6.9v-6.9h-4.6v6.9h-6.9c-0.6,0-1.2-0.5-1.2-1.2v-8.6c0,0,0-0.1,0-0.1l10.3-8.5l10.3,8.5c0,0,0,0.1,0,0.1V34z"/>
</g>
</svg>
